<svg height="512pt" viewBox="-52 0 512 512" width="512pt" xmlns="http://www.w3.org/2000/svg"><path d="m407.953125 76.667969c-.226563-2.273438-1.265625-4.464844-2.882813-6.078125l-67.671874-67.660156c-1.859376-1.859376-4.445313-2.929688-7.074219-2.929688h-300.339844c-16.535156 0-29.984375 13.453125-29.984375 29.988281v256.328125c0 5.523438 4.480469 10.003906 10.003906 10.003906 5.527344 0 10.007813-4.476562 10.007813-10.003906v-256.328125c0-5.503906 4.472656-9.976562 9.972656-9.976562h290.332031v37.671875c0 16.535156 13.464844 29.988281 30.011719 29.988281h37.664063v394.3125c0 5.519531-4.488282 10.007813-10.003907 10.007813h-348.003906c-5.5 0-9.972656-4.488282-9.972656-10.007813v-115.792969c0-5.523437-4.480469-10.003906-10.007813-10.003906-5.523437 0-10.003906 4.476562-10.003906 10.003906v115.792969c0 16.550781 13.449219 30.015625 29.984375 30.015625h348.003906c16.550781 0 30.015625-13.464844 30.015625-30.015625v-404.320313c0-.351562-.023437-.703124-.058594-1.054687.007813.054687.03125.292969.007813.058594-.023437-.238281.03125.328125 0 0zm-67.625-18.984375v-23.527344l33.511719 33.503906h-23.507813c-5.515625 0-10.003906-4.476562-10.003906-9.976562zm0 0"/><path d="m345.96875 193.882812c0-38.65625-15.84375-73.671874-41.363281-98.910156-.503907-.625-1.078125-1.1875-1.714844-1.675781-24.984375-23.878906-58.816406-38.5625-96.011719-38.5625-69.699218 0-127.582031 51.554687-137.566406 118.542969-.089844.425781-.148438.867187-.183594 1.3125-.875 6.308594-1.34375 12.746094-1.34375 19.292968 0 38.390626 15.632813 73.199219 40.859375 98.394532.519531.652344 1.117188 1.230468 1.777344 1.734375 25.023437 24.125 59.035156 38.988281 96.457031 38.988281 18.515625 0 36.53125-3.597656 53.554688-10.691406 5.097656-2.125 7.511718-7.984375 5.386718-13.082032-2.125-5.101562-7.984374-7.515624-13.085937-5.386718-14.566406 6.070312-29.996094 9.148437-45.855469 9.148437-22.332031 0-43.242187-6.183593-61.121094-16.921875h15.039063c15.691406 0 28.453125-12.765625 28.453125-28.457031 0-15.695313-12.761719-28.457031-28.453125-28.457031-4.640625 0-8.414063-3.777344-8.414063-8.421875 0-4.65625 3.773438-8.449219 8.414063-8.449219h3.910156c15.675781 0 28.425781-12.761719 28.425781-28.457031 0-15.691407-12.75-28.457031-28.425781-28.457031h-73.453125c12.804688-51.964844 59.78125-90.621094 115.625-90.621094 22.007813 0 42.636719 6.011718 60.34375 16.472656h-14.75c-15.6875 0-28.453125 12.75-28.453125 28.425781 0 15.695313 12.765625 28.457031 28.453125 28.457031 4.5625 0 8.417969 3.871094 8.417969 8.449219 0 4.644531-3.777344 8.421875-8.417969 8.421875h-3.910156c-15.671875 0-28.425781 12.765625-28.425781 28.457032 0 15.691406 12.753906 28.457031 28.425781 28.457031h74.058594c-2.96875 12.3125-7.886719 24.117187-14.648438 34.957031-2.921875 4.6875-1.492187 10.859375 3.199219 13.78125 4.6875 2.925781 10.859375 1.496094 13.78125-3.195312 10.339844-16.578126 17.011719-35.078126 19.683594-54.320313.011719-.097656.023437-.195313.035156-.289063.855469-6.25 1.296875-12.574218 1.296875-18.9375zm-181.257812-8.507812c4.640624 0 8.414062 3.789062 8.414062 8.449219 0 4.578125-3.855469 8.449219-8.414062 8.449219h-3.914063c-15.671875 0-28.425781 12.761718-28.425781 28.457031 0 15.675781 12.753906 28.425781 28.425781 28.425781 4.65625 0 8.445313 3.792969 8.445313 8.449219 0 4.660156-3.789063 8.449219-8.445313 8.449219h-40.042969c-20.40625-21.390626-32.957031-50.34375-32.957031-82.175782 0-2.859375.109375-5.695312.308594-8.503906zm83.855468 16.5c-4.640625 0-8.417968-3.789062-8.417968-8.445312 0-4.660157 3.777343-8.449219 8.417968-8.449219h3.910156c15.671876 0 28.425782-12.753907 28.425782-28.429688 0-15.691406-12.753906-28.457031-28.425782-28.457031-4.65625 0-8.445312-3.789062-8.445312-8.449219 0-4.640625 3.789062-8.417969 8.445312-8.417969h40.074219c20.671875 21.4375 33.40625 50.585938 33.40625 82.65625 0 2.671876-.09375 5.339844-.269531 7.996094h-77.121094zm0 0"/><path d="m162.554688 446.15625.027343.027344c2.070313 1.839844 4.480469 2.949218 7.285157 2.949218 2.71875 0 5.015624-1.050781 6.914062-3.007812 1.925781-1.953125 2.917969-4.335938 2.917969-7.085938v-55.132812h10.996093c2.523438 0 4.703126-.90625 6.460938-2.691406 1.785156-1.785156 2.722656-3.96875 2.722656-6.492188 0-2.550781-.90625-4.789062-2.691406-6.632812-1.785156-1.8125-3.96875-2.75-6.492188-2.75h-42.109374c-2.554688 0-4.707032.9375-6.433594 2.777344-1.730469 1.789062-2.636719 3.914062-2.636719 6.40625 0 2.582031.878906 4.847656 2.777344 6.664062 1.726562 1.640625 3.769531 2.605469 6.175781 2.605469h11.082031v55.246093c0 2.777344 1.050781 5.160157 3.003907 7.117188zm0 0"/><path d="m58.523438 367.609375c-1.902344 1.984375-3.035157 4.367187-3.035157 7.117187v64.425782c0 2.808594.992188 5.214844 3.003907 7.171875 1.984374 1.929687 4.394531 2.921875 7.199218 2.921875 2.75 0 5.160156-.964844 7.085938-2.949219 1.925781-1.957031 2.863281-4.394531 2.863281-7.144531v-24.09375h32.277344v24.09375c0 2.78125.964843 5.1875 2.917969 7.144531 1.984374 1.984375 4.394531 2.949219 7.171874 2.949219 2.804688 0 5.210938-1.019532 7.140626-3.0625 1.898437-1.957032 2.917968-4.308594 2.917968-7.03125v-64.425782c0-2.835937-.964844-5.300781-2.976562-7.316406-1.953125-1.953125-4.335938-2.972656-7.085938-2.972656-2.804687 0-5.128906 1.160156-7.054687 3.171875-1.929688 1.984375-3.035157 4.367187-3.035157 7.117187v21.882813h-32.277343v-21.882813c0-2.777343-.960938-5.214843-2.917969-7.230468-1.898438-2.011719-4.25-3.058594-7.027344-3.058594-2.832031-.003906-5.214844 1.132812-7.167968 3.171875zm0 0"/><path d="m334.433594 367.410156c-1.984375-1.898437-4.335938-2.976562-7.085938-2.976562s-5.128906 1.023437-7.085937 2.976562c-1.953125 1.957032-2.976563 4.335938-2.976563 7.117188v63.066406c0 2.835938 1.050782 5.300781 3.003906 7.371094 1.957032 2.011718 4.339844 3.144531 7.171876 3.144531h29.359374c1.273438 0 2.492188-.226563 3.65625-.761719 1.078126-.484375 2.039063-1.164062 2.863282-1.984375 1.8125-1.816406 2.773437-4 2.773437-6.550781 0-1.246094-.253906-2.492188-.761719-3.65625-.511718-1.074219-1.164062-2.039062-2.011718-2.859375l-.03125-.03125c-1.867188-1.699219-4.078125-2.605469-6.601563-2.605469h-19.15625v-55.132812c0-2.808594-1.105469-5.1875-3.117187-7.117188zm0 0"/><path d="m266.023438 374.214844-11.933594 39.484375-11.703125-39.457031c-2.011719-6.320313-6.261719-9.808594-12.921875-9.808594-3.230469 0-6.09375 1.023437-8.585938 3.035156-2.410156 1.925781-3.996094 4.394531-4.507812 7.425781l-10.398438 61.765625c-.230468.621094-.257812 1.414063-.257812 2.039063 0 2.835937.878906 5.386719 2.863281 7.425781 1.953125 2.070312 4.476563 3.007812 7.3125 3.007812 6.09375 0 9.238281-3.65625 10.058594-9.496093l5.753906-39.910157 12.128906 41.382813c1.613281 5.015625 4.929688 8.023437 10.257813 8.023437 2.269531 0 4.902344-.34375 6.746094-1.789062 1.8125-1.472656 2.863281-4.023438 3.515624-6.234375l12.15625-41.414063 5.839844 39.941407c.90625 5.835937 4.078125 9.496093 10.171875 9.496093 2.777344 0 5.242188-.9375 7.199219-2.949218 2.011719-2.042969 2.859375-4.621094 2.859375-7.484375v-.054688l-.226563-1.871093-10.425781-61.878907c-.570312-3.0625-2.125-5.554687-4.566406-7.484375-2.433594-1.984375-5.242187-2.976562-8.386719-2.976562-6.714844 0-11.023437 3.402344-12.949218 9.78125zm0 0"/><path d="m288.277344 304.089844c1.90625 0 3.835937-.546875 5.539062-1.683594l.171875-.113281c4.597657-3.0625 5.839844-9.277344 2.773438-13.875-3.066407-4.597657-9.28125-5.839844-13.875-2.773438l-.167969.113281c-4.597656 3.0625-5.839844 9.277344-2.777344 13.875 1.929688 2.890626 5.105469 4.457032 8.335938 4.457032zm0 0"/><path d="m10.003906 336.257812c5.527344 0 10.007813-4.480468 10.007813-10.003906v-.199218c0-5.523438-4.480469-10.003907-10.007813-10.003907-5.523437 0-10.003906 4.476563-10.003906 10.003907v.199218c0 5.523438 4.480469 10.003906 10.003906 10.003906zm0 0"/></svg>