<?xml version="1.0" encoding="iso-8859-1"?>
<!-- Generator: Adobe Illustrator 19.0.0, SVG Export Plug-In . SVG Version: 6.00 Build 0)  -->
<svg version="1.1" id="Capa_1" xmlns="http://www.w3.org/2000/svg" xmlns:xlink="http://www.w3.org/1999/xlink" x="0px" y="0px"
	 viewBox="0 0 512 512" style="enable-background:new 0 0 512 512;" xml:space="preserve">
<g>
	<g>
		<path d="M354.957,0c-70.317,0-127.525,55.283-127.525,123.234v116.653H29.517V512h323.93V239.887h-39.026V125.404
			c0-19.975,18.185-36.225,40.536-36.225c22.353,0,40.537,16.25,40.537,36.225v81.608l86.988,0.023v-83.801
			C482.481,55.283,425.273,0,354.957,0z M323.447,269.887V482H59.517V269.887H323.447z M354.956,59.178
			c-38.893,0-70.536,29.708-70.536,66.225v114.483h-26.989V123.234c0-51.409,43.75-93.234,97.525-93.234
			c53.775,0,97.525,41.825,97.525,93.234v53.793l-26.988-0.008v-51.616C425.493,88.886,393.851,59.178,354.956,59.178z"/>
	</g>
</g>
<g>
	<g>
		<path d="M191.481,303.999c-28.172,0-51.09,22.92-51.09,51.092c0,11.243,3.626,21.963,10.321,30.793l0.08,54.003h81.429
			l0.035-54.01c6.691-8.828,10.316-19.546,10.316-30.787C242.572,326.919,219.653,303.999,191.481,303.999z M206.544,369.844
			l-4.281,4.37l-0.023,35.674h-21.493l-0.053-35.678l-4.275-4.365c-3.887-3.969-6.028-9.208-6.028-14.753
			c0-11.629,9.461-21.091,21.091-21.091c11.629-0.001,21.09,9.46,21.09,21.09C212.572,360.637,210.431,365.876,206.544,369.844z"/>
	</g>
</g>
<g>
</g>
<g>
</g>
<g>
</g>
<g>
</g>
<g>
</g>
<g>
</g>
<g>
</g>
<g>
</g>
<g>
</g>
<g>
</g>
<g>
</g>
<g>
</g>
<g>
</g>
<g>
</g>
<g>
</g>
</svg>
